<svg width="160" height="160" viewBox="0 0 160 160" fill="none" xmlns="http://www.w3.org/2000/svg">
<g clip-path="url(#clip0_24162_15460)">
<g opacity="0.5">
<path d="M148 114.117C148 119.338 145.964 124.06 142.65 127.471C139.348 130.898 134.782 133 129.731 133H47.5208V132.958C46.9854 132.984 46.4628 133 45.9275 133C27.1872 133 12 117.3 12 97.9281C12 92.1 13.383 86.5965 15.8111 81.7552C20.5337 72.3813 29.2394 65.4858 39.6117 63.4767C41.1126 43.0668 58.1672 27 78.9564 27C99.7456 27 117.686 43.9284 118.39 65.0937C130.162 68.3726 138.813 79.5017 138.813 92.7075C138.813 94.3406 138.682 95.9447 138.421 97.4974C139.648 98.1853 140.782 99.0082 141.815 99.9662C145.613 103.406 148 108.479 148 114.117Z" fill="url(#paint0_radial_24162_15460)"/>
<path d="M141.815 99.9694C128.425 113.204 107.977 121.662 85.0782 121.662C52.8842 121.662 25.5593 104.962 15.8115 81.7584C20.534 72.3845 29.2398 65.4891 39.6121 63.4799C41.113 43.0701 58.1675 27 78.9568 27C99.746 27 117.686 43.9284 118.391 65.0937C130.162 68.3726 138.813 79.5017 138.813 92.7075C138.813 94.3406 138.683 95.9447 138.422 97.4974C139.648 98.1853 140.783 99.0082 141.815 99.9662V99.9694Z" fill="url(#paint1_radial_24162_15460)"/>
</g>
<path d="M31.3238 81.5532C30.8458 82.0354 29.9567 82.0065 28.9307 81.5725C28.1436 81.2382 27.2577 81.2511 26.4642 81.6047C25.4254 82.0644 24.5364 82.1158 24.0711 81.6432C23.6059 81.1707 23.6537 80.277 24.1094 79.229C24.4599 78.4254 24.4726 77.5317 24.1412 76.7377C23.711 75.7026 23.6824 74.8057 24.1603 74.3235C24.6383 73.8413 25.5274 73.8702 26.5535 74.3042C27.3405 74.6385 28.2264 74.6289 29.0231 74.272C30.0587 73.8123 30.9478 73.7609 31.4162 74.2335C31.8846 74.706 31.8336 75.6029 31.3779 76.6477C31.0274 77.4513 31.0179 78.345 31.3493 79.139C31.7795 80.1709 31.8081 81.0678 31.3301 81.55H31.3238V81.5532Z" fill="#63A3EF"/>
<path d="M53.218 62.0485C54.448 61.2995 55.7577 60.7305 57.1088 60.3447L57.9086 56.4614L64.4124 56.3457L65.3493 60.2001C66.7132 60.5376 68.042 61.0616 69.2975 61.7656L72.586 59.5925L77.2671 64.1509L75.2309 67.5423C75.9734 68.7832 76.5374 70.1044 76.9198 71.4674L80.7691 72.2743L80.8839 78.8354L77.0632 79.7805C76.7286 81.1564 76.2092 82.4969 75.5113 83.7603L77.6654 87.0778L73.1469 91.8001L69.785 89.7427C68.555 90.4918 67.2453 91.0608 65.8942 91.4465L65.0944 95.3298L58.5906 95.4455L57.6537 91.5912C56.2899 91.2536 54.9611 90.7296 53.7055 90.0256L50.417 92.1987L45.7359 87.6404L47.7753 84.2489C47.0328 83.008 46.4688 81.6868 46.0832 80.3238L42.2339 79.5169L42.1191 72.9558L45.9398 72.0107C46.2744 70.6348 46.7939 69.2943 47.4917 68.0278L45.3376 64.7102L49.8562 59.9879L53.218 62.0453V62.0485ZM56.685 70.7891C54.0083 73.5859 54.0847 78.0446 56.8571 80.7449C59.6294 83.4452 64.0492 83.3681 66.7259 80.5713C69.4026 77.7746 69.3261 73.3159 66.5538 70.6156C63.7815 67.9152 59.3617 67.9924 56.685 70.7891Z" fill="#FF9E24"/>
<path d="M119.03 118.414H44.0565C41.4913 118.414 39.8885 115.524 41.1758 113.213L78.6628 45.9431C79.947 43.6414 83.1431 43.6414 84.4273 45.9431L121.914 113.216C123.202 115.524 121.599 118.417 119.034 118.417L119.03 118.414Z" fill="#E4F2FF"/>
<path d="M119.031 122.511H44.0572C41.4219 122.511 39.0479 121.129 37.7032 118.811C36.3489 116.478 36.3266 113.565 37.6395 111.212L75.1232 43.9388C76.4329 41.5857 78.8929 40.123 81.541 40.123C84.189 40.123 86.6491 41.5857 87.9619 43.9388L125.449 111.212C126.762 113.568 126.736 116.481 125.385 118.811C124.04 121.129 121.666 122.511 119.031 122.511ZM45.214 114.324H117.874L81.5442 49.1305L45.214 114.324Z" fill="#E84040"/>
<path d="M83.6123 100.305H79.4761C78.756 100.305 78.1633 99.7325 78.1314 99.0059L76.9524 70.4437C76.9205 69.6722 77.5323 69.0293 78.2971 69.0293H84.7945C85.5593 69.0293 86.1711 69.6722 86.1393 70.4437L84.9602 99.0059C84.9316 99.7325 84.3389 100.305 83.6155 100.305H83.6123Z" fill="#E84040"/>
<path d="M81.5252 109.566C83.4242 109.566 84.9636 108.013 84.9636 106.098C84.9636 104.182 83.4242 102.629 81.5252 102.629C79.6263 102.629 78.0869 104.182 78.0869 106.098C78.0869 108.013 79.6263 109.566 81.5252 109.566Z" fill="#E84040"/>
<path d="M97.472 59.6446L96.6387 60.1172L114.242 91.7103L115.075 91.2378L97.472 59.6446Z" fill="black"/>
<path d="M68.1503 122.787H44.1521C41.3448 122.787 38.8146 121.315 37.3838 118.849C35.9467 116.371 35.918 113.272 37.3137 110.767L48.2469 91.1484L49.0818 91.621L38.1486 111.24C36.9186 113.445 36.9409 116.175 38.2092 118.36C39.4647 120.527 41.6889 121.823 44.1521 121.823H68.1503V122.787Z" fill="black"/>
<path d="M130.962 60.056C130.685 60.3357 130.168 60.3196 129.569 60.0689C129.114 59.8728 128.597 59.8825 128.135 60.0882C127.53 60.355 127.014 60.3872 126.743 60.1139C126.472 59.8407 126.501 59.3199 126.765 58.7091C126.969 58.243 126.975 57.7222 126.784 57.2625C126.532 56.6582 126.52 56.1374 126.797 55.8577C127.074 55.578 127.59 55.5941 128.189 55.8449C128.648 56.0409 129.161 56.0345 129.627 55.8256C130.232 55.5587 130.748 55.5298 131.019 55.8031C131.29 56.0763 131.265 56.5971 130.997 57.2079C130.793 57.674 130.787 58.1948 130.978 58.6577C131.229 59.2588 131.242 59.7796 130.965 60.0593L130.962 60.056Z" fill="#86C5F6"/>
<path d="M140.55 121.705C140.193 122.065 139.527 122.045 138.756 121.717C138.166 121.467 137.504 121.476 136.908 121.74C136.13 122.084 135.464 122.122 135.114 121.769C134.763 121.415 134.801 120.743 135.142 119.962C135.404 119.361 135.413 118.692 135.165 118.098C134.843 117.323 134.821 116.651 135.177 116.288C135.534 115.925 136.2 115.947 136.968 116.272C137.558 116.523 138.221 116.513 138.82 116.249C139.597 115.905 140.26 115.867 140.611 116.22C140.961 116.574 140.923 117.246 140.582 118.03C140.321 118.631 140.311 119.3 140.56 119.898C140.881 120.673 140.904 121.341 140.544 121.705H140.55Z" fill="#2A61A1"/>
</g>
<path d="M41.8845 121.665C41.5261 122.023 40.8573 122.004 40.0829 121.678C39.4909 121.428 38.8253 121.438 38.2269 121.7C37.4461 122.042 36.7773 122.081 36.4253 121.729C36.0733 121.377 36.1117 120.708 36.4541 119.93C36.7165 119.332 36.7261 118.666 36.4765 118.074C36.1533 117.303 36.1309 116.634 36.4893 116.273C36.8477 115.911 37.5165 115.934 38.2877 116.257C38.8797 116.506 39.5453 116.497 40.1469 116.234C40.9277 115.892 41.5933 115.854 41.9453 116.206C42.2973 116.558 42.2589 117.226 41.9165 118.007C41.6541 118.606 41.6445 119.271 41.8941 119.866C42.2173 120.638 42.2397 121.303 41.8781 121.665H41.8845Z" fill="#2A61A1"/>
<path d="M132.877 58.0157C132.583 58.3101 132.036 58.2941 131.402 58.0285C130.919 57.8237 130.372 57.8333 129.882 58.0477C129.242 58.3293 128.695 58.3613 128.407 58.0733C128.119 57.7853 128.151 57.2381 128.429 56.5981C128.644 56.1085 128.653 55.5613 128.448 55.0781C128.183 54.4445 128.167 53.8973 128.461 53.6029C128.756 53.3085 129.303 53.3245 129.936 53.5901C130.423 53.7949 130.967 53.7885 131.46 53.5709C132.1 53.2893 132.647 53.2605 132.935 53.5485C133.223 53.8365 133.194 54.3837 132.912 55.0237C132.695 55.5133 132.688 56.0605 132.893 56.5469C133.159 57.1773 133.175 57.7245 132.88 58.0189L132.877 58.0157Z" fill="#86C5F6"/>
<path d="M30.5633 50.8097C30.2433 51.1297 29.6513 51.1105 28.9665 50.8225C28.4417 50.6017 27.8529 50.6081 27.3217 50.8417C26.6305 51.1457 26.0353 51.1809 25.7249 50.8673C25.4145 50.5537 25.4465 49.9617 25.7505 49.2705C25.9841 48.7393 25.9905 48.1473 25.7729 47.6225C25.4849 46.9377 25.4657 46.3425 25.7857 46.0257C26.1057 45.7089 26.6977 45.7249 27.3825 46.0129C27.9073 46.2337 28.4993 46.2273 29.0305 45.9937C29.7217 45.6897 30.3137 45.6577 30.6273 45.9681C30.9409 46.2785 30.9057 46.8737 30.6017 47.5649C30.3681 48.0961 30.3617 48.6881 30.5825 49.2129C30.8705 49.8977 30.8897 50.4865 30.5697 50.8065L30.5633 50.8097Z" fill="#63A3EF"/>
<defs>
<radialGradient id="paint0_radial_24162_15460" cx="0" cy="0" r="1" gradientUnits="userSpaceOnUse" gradientTransform="translate(26.1082 121.799) scale(98.6038 102.149)">
<stop stop-color="#E4F2FF"/>
<stop offset="1" stop-color="#86C5F6"/>
</radialGradient>
<radialGradient id="paint1_radial_24162_15460" cx="0" cy="0" r="1" gradientUnits="userSpaceOnUse" gradientTransform="translate(97.2048 125.391) scale(84.4272 87.4627)">
<stop stop-color="#63A3EF"/>
<stop offset="0.09" stop-color="#6BAAF0"/>
<stop offset="0.32" stop-color="#7AB9F3"/>
<stop offset="0.6" stop-color="#83C2F5"/>
<stop offset="1" stop-color="#86C5F6"/>
</radialGradient>
<clipPath id="clip0_24162_15460">
<rect width="136" height="106" fill="white" transform="translate(12 27)"/>
</clipPath>
</defs>
</svg>
