<svg width="176" height="175" viewBox="0 0 176 175" fill="none" xmlns="http://www.w3.org/2000/svg">
<g clip-path="url(#clip0_29076_285119)">
<g opacity="0.5">
<path d="M162.883 125.316C162.883 131.026 160.656 136.191 157.031 139.921C153.42 143.669 148.426 145.969 142.901 145.969H52.9837V145.923C52.3981 145.951 51.8266 145.969 51.241 145.969C30.7439 145.969 14.1328 128.796 14.1328 107.609C14.1328 101.234 15.6454 95.2149 18.3013 89.9198C23.4665 79.667 32.9884 72.1251 44.3331 69.9276C45.9747 47.6044 64.6281 30.0312 87.3664 30.0312C110.105 30.0312 129.727 48.5467 130.497 71.6962C143.372 75.2825 152.835 87.455 152.835 101.899C152.835 103.685 152.692 105.439 152.406 107.138C153.748 107.89 154.989 108.79 156.118 109.838C160.272 113.6 162.883 119.148 162.883 125.316Z" fill="url(#paint0_radial_29076_285119)"/>
<path d="M156.113 109.842C141.468 124.317 119.103 133.568 94.0573 133.568C58.8451 133.568 28.9585 115.302 18.2969 89.9233C23.4621 79.6705 32.984 72.1287 44.3287 69.9311C45.9703 47.6079 64.6238 30.0312 87.362 30.0312C110.1 30.0312 129.723 48.5467 130.493 71.6962C143.368 75.2825 152.83 87.455 152.83 101.899C152.83 103.685 152.687 105.439 152.402 107.138C153.743 107.89 154.984 108.79 156.113 109.838V109.842Z" fill="url(#paint1_radial_29076_285119)"/>
</g>
<path d="M35.259 89.6982C34.7362 90.2256 33.7638 90.194 32.6415 89.7193C31.7806 89.3537 30.8117 89.3677 29.9439 89.7545C28.8076 90.2573 27.8352 90.3135 27.3264 89.7967C26.8175 89.2798 26.8698 88.3024 27.3682 87.1561C27.7516 86.2771 27.7655 85.2997 27.4031 84.4312C26.9325 83.2991 26.9012 82.3181 27.424 81.7907C27.9468 81.2633 28.9192 81.2949 30.0414 81.7696C30.9023 82.1353 31.8712 82.1247 32.7426 81.7344C33.8753 81.2316 34.8477 81.1754 35.36 81.6922C35.8724 82.2091 35.8166 83.1901 35.3182 84.3328C34.9348 85.2118 34.9244 86.1892 35.2869 87.0577C35.7574 88.1863 35.7887 89.1673 35.2659 89.6947H35.259V89.6982Z" fill="#63A3EF"/>
<path d="M59.2097 68.3663C60.555 67.5471 61.9875 66.9248 63.4653 66.5028L64.3401 62.2555L71.4536 62.1289L72.4783 66.3446C73.97 66.7138 75.4234 67.2869 76.7966 68.0569L80.3935 65.6801L85.5134 70.6658L83.2863 74.3752C84.0984 75.7324 84.7153 77.1775 85.1335 78.6683L89.3438 79.5508L89.4692 86.727L85.2903 87.7608C84.9244 89.2656 84.3563 90.7318 83.593 92.1136L85.9491 95.7421L81.0069 100.907L77.3299 98.6569C75.9845 99.4762 74.5521 100.098 73.0743 100.52L72.1995 104.768L65.0859 104.894L64.0613 100.679C62.5695 100.309 61.1162 99.7363 59.7429 98.9663L56.1461 101.343L51.0262 96.3574L53.2568 92.648C52.4447 91.2908 51.8278 89.8458 51.4061 88.355L47.1958 87.4724L47.0703 80.2962L51.2492 79.2625C51.6152 77.7577 52.1833 76.2915 52.9466 74.9062L50.5905 71.2776L55.5327 66.1126L59.2097 68.3628V68.3663ZM63.0017 77.9264C60.074 80.9854 60.1577 85.8621 63.1899 88.8156C66.2221 91.769 71.0563 91.6846 73.984 88.6257C76.9116 85.5667 76.828 80.69 73.7957 77.7366C70.7635 74.7831 65.9294 74.8675 63.0017 77.9264Z" fill="#FF9E24"/>
<path d="M131.189 130.015H49.1865C46.3809 130.015 44.6277 126.854 46.0358 124.326L87.0371 50.7494C88.4417 48.232 91.9375 48.232 93.3421 50.7494L134.343 124.329C135.751 126.854 133.998 130.018 131.193 130.018L131.189 130.015Z" fill="#E4F2FF"/>
<path d="M131.199 134.497H49.196C46.3136 134.497 43.7171 132.985 42.2463 130.45C40.765 127.897 40.7406 124.712 42.1766 122.138L83.1744 48.5583C84.6069 45.9846 87.2975 44.3848 90.1938 44.3848C93.0901 44.3848 95.7808 45.9846 97.2168 48.5583L138.218 122.138C139.654 124.715 139.626 127.901 138.148 130.45C136.678 132.985 134.081 134.497 131.199 134.497ZM50.4612 125.542H129.933L90.1973 54.2367L50.4612 125.542Z" fill="#E84040"/>
<path d="M92.4575 110.207H87.9336C87.1459 110.207 86.4976 109.582 86.4627 108.787L85.1732 77.547C85.1383 76.7032 85.8075 76 86.644 76H93.7506C94.587 76 95.2562 76.7032 95.2214 77.547L93.9318 108.787C93.9004 109.582 93.2522 110.207 92.461 110.207H92.4575Z" fill="#E84040"/>
<path d="M90.1747 120.338C92.2517 120.338 93.9354 118.639 93.9354 116.544C93.9354 114.449 92.2517 112.75 90.1747 112.75C88.0978 112.75 86.4141 114.449 86.4141 116.544C86.4141 118.639 88.0978 120.338 90.1747 120.338Z" fill="#E84040"/>
<path d="M107.615 65.7351L106.703 66.252L125.957 100.807L126.868 100.29L107.615 65.7351Z" fill="black"/>
<path d="M75.5467 134.798H49.2987C46.2282 134.798 43.4608 133.188 41.8959 130.491C40.324 127.78 40.2927 124.391 41.8192 121.652L53.7774 100.193L54.6905 100.71L42.7324 122.169C41.3871 124.581 41.4115 127.566 42.7986 129.957C44.1718 132.326 46.6046 133.743 49.2987 133.743H75.5467V134.798Z" fill="black"/>
<path d="M144.244 66.1856C143.941 66.4915 143.376 66.4739 142.721 66.1997C142.223 65.9852 141.658 65.9958 141.153 66.2208C140.491 66.5126 139.926 66.5478 139.63 66.2489C139.333 65.9501 139.365 65.3805 139.654 64.7124C139.877 64.2026 139.884 63.633 139.675 63.1302C139.4 62.4692 139.386 61.8996 139.689 61.5937C139.992 61.2878 140.557 61.3054 141.212 61.5796C141.714 61.7941 142.275 61.7871 142.784 61.5585C143.446 61.2667 144.011 61.2351 144.307 61.5339C144.603 61.8328 144.575 62.4024 144.283 63.0704C144.06 63.5803 144.053 64.1499 144.262 64.6562C144.537 65.3137 144.551 65.8832 144.248 66.1891L144.244 66.1856Z" fill="#86C5F6"/>
<path d="M154.73 133.615C154.34 134.009 153.611 133.988 152.768 133.629C152.123 133.355 151.398 133.365 150.746 133.654C149.896 134.03 149.168 134.072 148.784 133.685C148.401 133.299 148.443 132.564 148.816 131.709C149.101 131.052 149.112 130.32 148.84 129.67C148.488 128.823 148.464 128.088 148.854 127.691C149.244 127.293 149.973 127.318 150.813 127.673C151.457 127.947 152.182 127.937 152.838 127.648C153.688 127.272 154.413 127.23 154.796 127.617C155.18 128.003 155.138 128.738 154.765 129.596C154.479 130.254 154.469 130.985 154.741 131.639C155.093 132.486 155.117 133.218 154.723 133.615H154.73Z" fill="#2A61A1"/>
</g>
<path d="M46.311 133.071C45.919 133.463 45.1875 133.442 44.3405 133.085C43.693 132.812 42.965 132.822 42.3105 133.109C41.4565 133.484 40.725 133.526 40.34 133.141C39.955 132.756 39.997 132.024 40.3715 131.174C40.6585 130.519 40.669 129.791 40.396 129.144C40.0425 128.3 40.018 127.569 40.41 127.173C40.802 126.778 41.5335 126.802 42.377 127.156C43.0245 127.429 43.7525 127.418 44.4105 127.131C45.2645 126.757 45.9925 126.715 46.3775 127.1C46.7625 127.485 46.7205 128.216 46.346 129.07C46.059 129.725 46.0485 130.453 46.3215 131.104C46.675 131.947 46.6995 132.675 46.304 133.071H46.311Z" fill="#2A61A1"/>
<path d="M145.829 63.4555C145.507 63.7775 144.908 63.76 144.215 63.4695C143.687 63.2455 143.088 63.256 142.553 63.4905C141.853 63.7985 141.254 63.8335 140.939 63.5185C140.624 63.2035 140.659 62.605 140.964 61.905C141.198 61.3695 141.209 60.771 140.985 60.2425C140.694 59.5495 140.677 58.951 140.999 58.629C141.321 58.307 141.919 58.3245 142.612 58.615C143.144 58.839 143.739 58.832 144.278 58.594C144.978 58.286 145.577 58.2545 145.892 58.5695C146.207 58.8845 146.175 59.483 145.867 60.183C145.629 60.7185 145.622 61.317 145.846 61.849C146.137 62.5385 146.154 63.137 145.832 63.459L145.829 63.4555Z" fill="#86C5F6"/>
<path d="M33.929 55.5731C33.579 55.9231 32.9315 55.9021 32.1825 55.5871C31.6085 55.3456 30.9645 55.3526 30.3835 55.6081C29.6275 55.9406 28.9765 55.9791 28.637 55.6361C28.2975 55.2931 28.3325 54.6456 28.665 53.8896C28.9205 53.3086 28.9275 52.6611 28.6895 52.0871C28.3745 51.3381 28.3535 50.6871 28.7035 50.3406C29.0535 49.9941 29.701 50.0116 30.45 50.3266C31.024 50.5681 31.6715 50.5611 32.2525 50.3056C33.0085 49.9731 33.656 49.9381 33.999 50.2776C34.342 50.6171 34.3035 51.2681 33.971 52.0241C33.7155 52.6051 33.7085 53.2526 33.95 53.8266C34.265 54.5756 34.286 55.2196 33.936 55.5696L33.929 55.5731Z" fill="#63A3EF"/>
<defs>
<radialGradient id="paint0_radial_29076_285119" cx="0" cy="0" r="1" gradientUnits="userSpaceOnUse" gradientTransform="translate(29.5637 133.717) scale(107.848 111.725)">
<stop stop-color="#E4F2FF"/>
<stop offset="1" stop-color="#86C5F6"/>
</radialGradient>
<radialGradient id="paint1_radial_29076_285119" cx="0" cy="0" r="1" gradientUnits="userSpaceOnUse" gradientTransform="translate(107.321 137.647) scale(92.3423 95.6623)">
<stop stop-color="#63A3EF"/>
<stop offset="0.09" stop-color="#6BAAF0"/>
<stop offset="0.32" stop-color="#7AB9F3"/>
<stop offset="0.6" stop-color="#83C2F5"/>
<stop offset="1" stop-color="#86C5F6"/>
</radialGradient>
<clipPath id="clip0_29076_285119">
<rect width="148.75" height="115.938" fill="white" transform="translate(14.1328 30.0312)"/>
</clipPath>
</defs>
</svg>
